<svg xmlns:mydata="http://www.w3.org/2000/svg" mydata:contrastcolor="e6f8fc" mydata:template="Contrast" mydata:presentation="2.5" mydata:layouttype="undefined" mydata:specialfontid="undefined" mydata:id1="678" mydata:id2="281" mydata:companyname="LingXi" mydata:companytagline="" version="1.1" xmlns="http://www.w3.org/2000/svg" xmlns:xlink="http://www.w3.org/1999/xlink" viewBox="0 0 550 470"><g fill="#00b5e2" fill-rule="nonzero" stroke="none" stroke-width="1" stroke-linecap="butt" stroke-linejoin="miter" stroke-miterlimit="10" stroke-dasharray="" stroke-dashoffset="0" font-family="none" font-weight="none" font-size="none" text-anchor="none" style="mix-blend-mode: normal"><g data-paper-data="{&quot;isGlobalGroup&quot;:true,&quot;bounds&quot;:{&quot;x&quot;:95.64558445902927,&quot;y&quot;:188.12175790670378,&quot;width&quot;:358.7088310819415,&quot;height&quot;:93.75648418659253}}"><g data-paper-data="{&quot;isPrimaryText&quot;:true}"><path d="M97.65179,188.12176h13.37468v47.07886l-6.82109,13.10718zM95.64558,206.71256l5.88486,54.96992l9.49602,-17.92207v22.6032h31.96548v15.38088h-31.96548h-15.38088v-15.38088z" data-paper-data="{&quot;glyphName&quot;:&quot;L&quot;,&quot;glyphIndex&quot;:0,&quot;firstGlyphOfWord&quot;:true,&quot;word&quot;:1}"></path><path d="M151.55173,188.12176h15.51463v75.03194l-6.0186,-54.96992l-9.49602,17.92207zM158.50657,221.55845l6.41984,60.18605h-13.37468v-47.07886z" data-paper-data="{&quot;glyphName&quot;:&quot;I&quot;,&quot;glyphIndex&quot;:1,&quot;word&quot;:1}"></path><path d="M175.62615,188.12176v93.62274h11.76972v-73.69447l0.13375,0.13375v-0.13375v0v-1.33747l12.83969,18.85829c-2.0062,2.80868 -3.07618,5.75111 -3.20992,8.55979v1.20372c0,2.67494 0.80248,5.08238 2.54119,7.22233c1.73871,2.13995 3.87866,3.47742 6.41984,4.0124c0.80248,0.13375 1.47121,0.26749 2.13995,0.26749c1.47121,0 2.94243,-0.40124 4.14615,-1.33747c-0.80248,0.40124 -1.60496,0.53499 -2.40744,0.53499c-1.06997,0 -2.13995,-0.26749 -3.34367,-0.93623c-1.87245,-0.93623 -3.34367,-2.2737 -4.2799,-4.2799c-0.66873,-1.20372 -0.93623,-2.54119 -0.93623,-3.87866c0,-0.66873 0.13375,-1.47121 0.26749,-2.13995c0.66873,-2.40744 2.2737,-4.68114 4.81488,-6.82109c1.06997,-0.93623 1.20372,-2.2737 0.40124,-3.87866c-2.2737,-2.2737 -5.34987,-6.55359 -9.49602,-12.5722c-4.14615,-6.0186 -7.75731,-11.36848 -10.83349,-16.18336l-4.41364,-7.22233zM235.94594,188.12176v73.56072l-0.13375,-0.13375l0.13375,0.13375v0v1.33747l-12.83969,-18.85829c2.0062,-2.80868 3.07618,-5.61736 3.20992,-8.55979v-0.80248c0,-2.80868 -0.93623,-5.34987 -2.67494,-7.62357c-1.73871,-2.13995 -3.74491,-3.47742 -6.2861,-4.0124c-0.80248,-0.13375 -1.60496,-0.26749 -2.2737,-0.26749c-1.47121,0 -2.94243,0.40124 -4.14615,1.33747c0.80248,-0.40124 1.60496,-0.53499 2.40744,-0.53499c1.20372,0 2.2737,0.26749 3.47742,0.93623c1.87245,0.93623 3.20992,2.2737 4.14615,4.2799c0.66873,1.20372 0.93623,2.54119 0.93623,3.87866c0,0.66873 -0.13375,1.47121 -0.26749,2.13995c-0.66873,2.40744 -2.13995,4.68114 -4.68114,6.82109c-1.33747,1.20372 -1.47121,2.40744 -0.53499,3.87866l24.8769,36.11163l5.75111,0.13375v-93.62274z" data-paper-data="{&quot;glyphName&quot;:&quot;N&quot;,&quot;glyphIndex&quot;:2,&quot;word&quot;:1}"></path><path d="M297.33571,188.2555c2.67494,0 5.34987,0.26749 7.89106,0.80248c2.54119,0.53499 5.08238,1.33747 7.62357,2.40744c2.40744,1.20372 4.68114,2.54119 6.95483,4.14615c2.2737,1.60496 4.2799,3.47742 6.15235,5.48362c-4.81488,-4.41364 -10.2985,-7.48982 -16.31711,-8.96103c-3.07618,-0.80248 -6.2861,-1.20372 -9.36227,-1.20372c-5.88486,0.13375 -11.50222,1.60496 -16.98584,4.41364c-5.48362,2.80868 -9.76351,6.55359 -13.10718,11.23473c-3.74491,5.08238 -6.15235,10.69974 -7.35607,16.85209c-0.53499,2.80868 -0.80248,5.48362 -0.80248,8.02481c0,3.47742 0.40124,6.95483 1.33747,10.2985c1.20372,5.08238 3.47742,9.76351 6.68734,14.17716c3.07618,4.41364 6.95483,7.89106 11.63597,10.56599c5.75111,3.34367 11.23473,5.08238 16.5846,5.08238c5.75111,0 11.23473,-2.0062 16.5846,-5.88486c3.87866,-3.34367 6.82109,-8.02481 8.55979,-14.04341v-2.54119h-16.98584l-12.03721,-12.03721h41.99649c0.40124,2.80868 0.53499,5.34987 0.53499,7.89106c0,9.76351 -2.80868,17.92207 -8.2923,24.47566c-6.95483,8.2923 -17.11959,12.43845 -30.62801,12.43845c-5.48362,0 -10.83349,-1.20372 -16.04961,-3.61116c-5.21612,-2.2737 -9.62977,-5.48362 -13.50842,-9.62977c-3.87866,-4.14615 -7.08858,-9.09478 -9.36227,-14.97964c-2.2737,-5.75111 -3.47742,-12.03721 -3.47742,-18.5908c0.13375,-8.42605 2.0062,-16.31711 5.75111,-23.53943c3.61116,-7.22233 8.69354,-12.97344 15.11338,-17.11959c6.41984,-4.14615 13.37468,-6.15235 20.8645,-6.15235zM300.94687,192.93664h0.53499h0.53499c4.14615,0 8.42605,0.93623 13.10718,2.94243c4.81488,2.0062 9.09478,5.08238 12.97344,9.09478c3.74491,4.14615 6.0186,8.55979 6.82109,13.37468h-11.63597c-3.07618,-9.89726 -10.69974,-15.11338 -22.73695,-15.78212h-0.80248c-7.35607,0 -13.77592,2.13995 -19.52703,6.55359c-6.0186,4.54739 -9.49602,10.56599 -10.2985,18.05581c-0.13375,1.47121 -0.26749,3.07618 -0.26749,4.54739c0,5.08238 0.93623,10.03101 2.80868,14.71214c2.40744,6.0186 6.0186,10.96723 10.83349,14.71214c4.81488,3.74491 10.03101,5.61736 15.78212,5.61736c4.68114,0 8.69354,-0.93623 11.90346,-2.80868c3.07618,-1.87245 6.15235,-4.54739 8.96103,-8.15855c-2.0062,4.0124 -4.81488,7.22233 -8.42605,9.62977c-3.74491,2.40744 -8.02481,3.74491 -12.83969,4.0124h-1.33747c-2.0062,0 -4.0124,-0.26749 -6.2861,-0.93623c-3.74491,-1.06997 -7.22233,-2.67494 -10.43225,-4.94863c-3.34367,-2.2737 -6.15235,-4.94863 -8.55979,-8.02481c-2.40744,-3.07618 -4.2799,-6.55359 -5.61736,-10.16475c-1.60496,-4.41364 -2.40744,-8.96103 -2.40744,-13.64217c0,-1.73871 0.13375,-3.34367 0.26749,-5.08238c0.80248,-6.55359 2.94243,-12.5722 6.55359,-17.78832c1.73871,-2.54119 3.74491,-4.81488 6.0186,-6.82109c2.2737,-2.0062 4.68114,-3.74491 7.48982,-5.21612c2.80868,-1.33747 5.61736,-2.40744 8.42605,-3.07618c2.67494,-0.53499 5.34987,-0.80248 8.15855,-0.80248z" data-paper-data="{&quot;glyphName&quot;:&quot;G&quot;,&quot;glyphIndex&quot;:3,&quot;word&quot;:1}"></path><path d="M345.48455,188.12176h15.78212c1.20372,1.33747 3.07618,3.20992 5.61736,5.61736c2.54119,2.54119 4.54739,4.54739 6.15235,6.0186c1.47121,1.60496 3.47742,3.87866 5.88486,6.68734c2.40744,2.80868 4.41364,5.61736 6.15235,8.15855c1.73871,2.67494 3.61116,6.15235 5.88486,10.2985c2.13995,4.14615 4.14615,8.55979 5.88486,13.10718c1.73871,4.54739 3.47742,10.03101 5.34987,16.31711c1.73871,6.2861 3.47742,13.10718 4.94863,20.46326c-3.61116,-9.49602 -7.22233,-17.92207 -10.96723,-25.41189c-3.74491,-7.35607 -8.02481,-14.5784 -12.97344,-21.66698c-4.94863,-7.08858 -10.43225,-13.77592 -16.45085,-20.06202c-6.15235,-6.2861 -13.24093,-12.83969 -21.26574,-19.52703zM414.49788,188.12176h15.78212l-23.67318,32.09922c-2.54119,-3.47742 -5.21612,-6.95483 -8.15855,-10.2985zM379.05499,195.07659c3.47742,2.80868 6.68734,5.75111 9.76351,8.82729c3.07618,3.07618 5.75111,5.88486 8.15855,8.42605c2.2737,2.54119 4.54739,5.48362 6.82109,8.55979c2.2737,3.20992 4.14615,5.88486 5.61736,8.15855c1.47121,2.2737 3.07618,5.21612 4.81488,8.69354c1.60496,3.47742 2.80868,6.15235 3.74491,8.15855c0.93623,2.0062 2.0062,4.94863 3.47742,8.82729c1.33747,3.87866 2.2737,6.68734 2.94243,8.55979c0.66873,1.87245 1.60496,4.94863 2.94243,9.22853c1.33747,4.2799 2.2737,7.35607 2.94243,9.22853h-15.78212c-2.80868,-18.99204 -6.55359,-34.10543 -11.10098,-45.34015c-4.54739,-11.10098 -12.70594,-24.8769 -24.34191,-41.32775zM382.5324,231.45571c0.13375,0.26749 0.40124,0.53499 0.53499,0.66873c2.2737,3.34367 4.54739,7.08858 6.68734,10.96723l-28.48806,38.65282h-15.78212z" data-paper-data="{&quot;glyphName&quot;:&quot;X&quot;,&quot;glyphIndex&quot;:4,&quot;word&quot;:1}"></path><path d="M438.83979,188.12176h15.51463v75.03194l-6.0186,-54.96992l-9.49602,17.92207zM445.79462,221.55845l6.41984,60.18605h-13.37468v-47.07886z" data-paper-data="{&quot;glyphName&quot;:&quot;I&quot;,&quot;glyphIndex&quot;:5,&quot;lastGlyphOfWord&quot;:true,&quot;word&quot;:1}"></path></g></g></g></svg>