<svg xmlns="http://www.w3.org/2000/svg" version="1.1" xmlns:xlink="http://www.w3.org/1999/xlink" xmlns:svgjs="http://svgjs.dev/svgjs" viewBox="0 0 1920 1080" class="overflow-hidden rounded-md drop-shadow-lg transition duration-300" style="overflow: hidden; height: 85vh;"><rect width="1920" height="1080" fill="#19424d"></rect><g clip-path="url(&quot;#SvgjsClipPath1401&quot;)"><g transform="matrix(0.7392057511395203,0.8809511095868247,-0.8809511095868247,0.7392057511395203,714.9379897079623,-667.2602149397139)"><path d="M0,-1080C-12.17056358854344,-931.2996067299302,-61.397165461150706,-469.26959970089206,-73.02338153126064,-187.7976403795812C-84.64959760137057,93.67431894172967,-95.18806204879014,336.4131468018628,-69.7572964206596,608.8317559278652C-44.326530792529056,881.2503650538675,67.93499616741272,1188.1859736977437,79.56121223752265,1446.714014376433C91.18742830763259,1705.2420550551221,13.260202039587108,2041.1190023960721,0,2160L 1920 2160 L 1920 -1080 Z" fill="url(&quot;#SvgjsLinearGradient1391&quot;)"></path><path d="M192,-1080C199.5182847471336,-940.6049280144048,242.34228774891292,-500.75039877366027,237.1097084828017,-243.62956808642872C231.87712921669046,13.491262600802827,166.52797650265393,193.6458641054104,160.60452440333265,462.72498412338916C154.68107230401137,731.8041041413679,196.33641662076286,1087.9659827086755,201.5689958868741,1370.845152021444C206.80157515298532,1653.7243213342124,193.59483264781235,2028.474192003574,192,2160L 1920 2160 L 1920 -1080 Z" fill="url(&quot;#SvgjsLinearGradient1392&quot;)"></path><path d="M384,-1080C384.40806883005916,-1025.8055115536108,391.46825352408166,-882.6620743741778,386.448412980355,-754.8330693216645C381.4285724366283,-627.0040642691513,352.8964003702547,-450.51862620260727,353.88095673764,-313.0259696849205C354.86551310502534,-175.53331316723373,402.35310353043843,-80.10672724239615,392.35575118466704,70.12286978445607C382.35839883889565,220.3524668113083,300.45729026014885,431.58850922201145,293.8968426630116,588.3516124761928C287.3363950658744,745.1147157303742,354.5944759935039,869.8345142054986,352.99306560184357,1010.7014893095441C351.3916552101832,1151.5684644135895,268.14587953328476,1303.3500222115736,284.2883803130497,1433.553463100465C300.4308810928146,1563.7569039893565,433.2294669992748,1670.847711826304,449.8480702804332,1791.9221346428933C466.4666735615916,1912.9965574594826,394.9746783800722,2098.6536891071487,384,2160L 1920 2160 L 1920 -1080 Z" fill="url(&quot;#SvgjsLinearGradient1393&quot;)"></path><path d="M576,-1080C576.0717337590249,-965.977215307938,591.4601383806114,-621.1794477421524,576.4304025541497,-395.86329184762764C561.4006667276881,-170.5471359531028,478.7541268096902,53.13259790550097,485.82158504123026,271.89693536714884C492.8890432727703,490.6612728287967,609.6627202486517,711.0308813434561,618.83515194339,916.7227329222595C628.0075836381283,1122.414584501063,547.995367200225,1298.8351669936794,540.85617520966,1506.0480448399694C533.716983219095,1713.2609226862594,570.1426958682766,2051.0080074733282,576,2160L 1920 2160 L 1920 -1080 Z" fill="url(&quot;#SvgjsLinearGradient1394&quot;)"></path><path d="M768,-1080C778.6333086907839,-985.144974734764,827.8754270313398,-694.3137437059228,831.7998521447032,-510.8698484085841C835.7242772580666,-327.42595311124546,805.1522538862685,-152.22853790860955,791.5465506801804,20.66337178403208C777.9408474740924,193.5552814766737,747.6194107196135,343.5630333171007,750.1656329081751,526.4816097472656C752.7118550967367,709.4001861774304,801.4886555764405,934.5338248466486,806.8238838115503,1118.1748303650215C812.1591120466602,1301.8158358833944,788.6476496207594,1454.6901145850068,782.1770023188343,1628.3276428575032C775.7063550169092,1801.9651711299996,770.3628337198057,2071.3879404762506,768,2160L 1920 2160 L 1920 -1080 Z" fill="url(&quot;#SvgjsLinearGradient1395&quot;)"></path><path d="M960,-1080C943.5139511640836,-975.5070170828368,849.6048568939184,-616.5782434733219,861.0837069845014,-453.0421024970207C872.5625570750844,-289.50596152071955,1004.5071929154999,-271.2993080394576,1028.8731005434984,-98.78315414219324C1053.2390081714968,73.73299975507115,1015.3606152776682,387.57499635704494,1007.279152752492,582.0548208865655C999.1976902273158,776.534645416086,996.7573221485508,883.1987829810278,980.384325392441,1068.09579303493C964.0113286363313,1252.9928030888323,912.4385597812402,1509.452846715801,909.0411722158334,1691.4368812099792C905.6437846504266,1873.4209157041576,951.5068620359723,2081.90614686833,960,2160L 1920 2160 L 1920 -1080 Z" fill="url(&quot;#SvgjsLinearGradient1396&quot;)"></path><path d="M1152,-1080C1149.1437864980414,-1021.6334394345979,1140.199869805653,-853.1952637072212,1134.8627189882486,-729.8006366075878C1129.5255681708443,-606.4060095079543,1122.9247283680465,-498.07133833799594,1119.9770950955744,-339.63223740219956C1117.0294618231023,-181.19313646640322,1099.3173676417678,78.77963597589039,1117.1769193534167,220.83396900719032C1135.0364710650656,362.8883020384902,1220.2144766787094,396.24369601746486,1227.1344053654673,512.6937607856C1234.0543340522252,629.1438255537352,1164.5697105487357,765.1277456875149,1158.6964914739642,919.5343576160013C1152.8232723991928,1073.9409695444879,1206.0130186506688,1283.9685351646733,1191.8950909168382,1439.1334323565188C1177.7771631830076,1594.2983295483643,1080.6381068904543,1730.3793128264945,1073.9889250709812,1850.5237407670747C1067.339743251508,1970.668168707655,1138.9981541784969,2108.4206234611793,1152,2160L 1920 2160 L 1920 -1080 Z" fill="url(&quot;#SvgjsLinearGradient1397&quot;)"></path><path d="M1344,-1080C1354.6061126936515,-990.7584446544311,1419.3158941715947,-731.7331345887872,1407.6366761619095,-544.5506679265864C1395.9574581522243,-357.36820126438556,1283.2663592632543,-130.6950846873435,1273.9246919418886,43.094799973205C1264.5830246205228,216.8846846337535,1328.4682338016,328.11363177559974,1351.5866722337144,498.1886400367045C1374.7051106658287,668.2636482978093,1422.9918702447762,889.5756878551736,1412.635322534574,1063.5448495398336C1402.2787748243718,1237.5140112244937,1300.8866063949295,1359.261085067971,1289.4473859725003,1542.0036101446653C1278.0081655500712,1724.7461352213597,1334.9078976620833,2057.0006016907773,1344,2160L 1920 2160 L 1920 -1080 Z" fill="url(&quot;#SvgjsLinearGradient1398&quot;)"></path><path d="M1536,-1080C1526.570622180734,-994.5616303964631,1488.5199012945893,-749.1143663063846,1479.4237330844048,-567.3697823787786C1470.3275648742203,-385.62519845117265,1487.132879815034,-161.05943587133137,1481.4229907388928,10.467503565635752C1475.7131016627518,181.99444300260288,1427.5387667295583,289.3276272903529,1445.1643986275578,461.791854243024C1462.7900305255573,634.2560811956951,1555.5196796730554,844.2762167335541,1587.1767821268902,1045.252865281662C1618.833884580725,1246.22951382977,1643.6364770383816,1481.8605564119487,1635.1070133505666,1667.6517455316716C1626.5775496627516,1853.4429346513946,1552.5178355584278,2077.941957588612,1536,2160L 1920 2160 L 1920 -1080 Z" fill="url(&quot;#SvgjsLinearGradient1399&quot;)"></path><path d="M1728,-1080C1737.220935383516,-983.6810450312379,1794.6151858579249,-713.0375753256773,1783.3256123010958,-502.0862701874273C1772.0360387442668,-291.13496504917737,1659.557962752654,-41.15209634204638,1660.2625586590261,185.7078308294994C1660.9671545653982,412.56775800104515,1777.330367415512,647.1442110834201,1787.5531877393291,859.0732928418471C1797.7760080631463,1071.0023746002742,1731.5250118918175,1240.4612035203693,1721.5994806019294,1457.2823213800614C1711.6739493120413,1674.1034392397535,1726.9332467669883,2042.880386896677,1728,2160L 1920 2160 L 1920 -1080 Z" fill="url(&quot;#SvgjsLinearGradient1400&quot;)"></path></g></g><defs><linearGradient x1="0.1" y1="0" x2="0" y2="1" id="SvgjsLinearGradient1391"><stop stop-color="#19424d" offset="0"></stop><stop stop-color="#194b4d" offset="0"></stop></linearGradient><linearGradient x1="0.1" y1="0" x2="0" y2="1" id="SvgjsLinearGradient1392"><stop stop-color="#235c6b" offset="0"></stop><stop stop-color="#23686b" offset="0.1"></stop></linearGradient><linearGradient x1="0.1" y1="0" x2="0" y2="1" id="SvgjsLinearGradient1393"><stop stop-color="#2d7689" offset="0"></stop><stop stop-color="#2d8589" offset="0.2"></stop></linearGradient><linearGradient x1="0.1" y1="0" x2="0" y2="1" id="SvgjsLinearGradient1394"><stop stop-color="#3690a8" offset="0"></stop><stop stop-color="#36a3a8" offset="0.3"></stop></linearGradient><linearGradient x1="0.1" y1="0" x2="0" y2="1" id="SvgjsLinearGradient1395"><stop stop-color="#44a7c2" offset="0"></stop><stop stop-color="#44bcc2" offset="0.4"></stop></linearGradient><linearGradient x1="0.1" y1="0" x2="0" y2="1" id="SvgjsLinearGradient1396"><stop stop-color="#62b6cc" offset="0"></stop><stop stop-color="#62c8cc" offset="0.5"></stop></linearGradient><linearGradient x1="0.1" y1="0" x2="0" y2="1" id="SvgjsLinearGradient1397"><stop stop-color="#80c4d6" offset="0"></stop><stop stop-color="#80d2d6" offset="0.6"></stop></linearGradient><linearGradient x1="0.1" y1="0" x2="0" y2="1" id="SvgjsLinearGradient1398"><stop stop-color="#9ed2e0" offset="0"></stop><stop stop-color="#9edde0" offset="0.7"></stop></linearGradient><linearGradient x1="0.1" y1="0" x2="0" y2="1" id="SvgjsLinearGradient1399"><stop stop-color="#bde0e9" offset="0"></stop><stop stop-color="#bde7e9" offset="0.8"></stop></linearGradient><linearGradient x1="0.1" y1="0" x2="0" y2="1" id="SvgjsLinearGradient1400"><stop stop-color="#dbeef3" offset="0"></stop><stop stop-color="#dbf2f3" offset="0.9"></stop></linearGradient><clipPath id="SvgjsClipPath1401"><rect width="1920" height="1080"></rect></clipPath></defs></svg>